/* XPM */
static char * poser_xpm[] = {
"38 39 12 1",
" 	c None",
".	c #C5C2C5",
"+	c #525252",
"@	c #212121",
"#	c #000000",
"$	c #003163",
"%	c #CECE00",
"&	c #9C9C63",
"*	c #424242",
"=	c #639C63",
"-	c #737373",
";	c #313131",
"......................................",
"......................................",
"......................................",
"....+@@@@@@@@@@@@@@@@@@@@@@@@@@@@@+...",
"....#$$$$$$$$$$$$$$$$$$$$$$$$$$$$$#...",
"....#$$$$%%%%$%%$%%%%$$$$$$$$$$$$@#...",
".....#$$$$$%%%##%%%$$$$$$$$$$$$$@#....",
"......#$$$$$$$%%$$$$$$$$$$$$$$$@#.....",
".......#$$$$$$$$$$$$$$$$$$$@@@@#......",
".......#$$$$$$$$$$$$$$$$$$$$$$@#......",
".......#%%%%%%%%%%%%%%%%$%$$$$@#......",
".......#########################......",
"......####################&@**@.......",
".....####################&&@**@.......",
"....@###################&=&@**@.......",
"....@#################*&=&&@**@.......",
"....+@#############@*=&=&=&@**@.......",
"........@**@=&=&=&=&=&=&=&&@**@.......",
"........@**@&=&=&=&=&=&=&=&@**@.......",
"........@**@==============&@**@.......",
"........@**@&&&&&&&&&&&&&&&@**@.......",
"........@**@-+-&-&-&-&-&-+-@**@.......",
"........@**@+&+&&&&&&&&&+&+@**@.......",
"........@**@-+-&&&&&&&&&-+-@**@.......",
"........@**@&&&&&&&&&&&&&&&@**@.......",
"........@**@-+-&&&&&&&&&-+-@**@.......",
"........@**@+&+&&&&&&&&&+&+@**@.......",
"........@**@-+-&-&-&-&-&-+-@**@.......",
"........@**;@@@@@@@@@@@@@@@;**@.......",
"........@*********************@.......",
"........@@@;;****************;@.......",
".........@;;@@;;*********;;@@@........",
".........@***;;@@@@@@@@@@@;;*@........",
".........@*******************@........",
".........+@@@@@@@@@@@@@@@@@@@+........",
"......................................",
"......................................",
"......................................",
"......................................"};
