#define home_width 16
#define home_height 16
static unsigned char home_bits[] = {
   0x80, 0x01, 0x40, 0x3a, 0x20, 0x2c, 0x10, 0x28, 0x08, 0x30, 0x04, 0x20,
   0x06, 0x60, 0x05, 0xa0, 0x74, 0x2f, 0x54, 0x29, 0x54, 0x29, 0x74, 0x29,
   0x04, 0x2b, 0x04, 0x29, 0x04, 0x29, 0xfc, 0x3f};
