#define reload_width 16
#define reload_height 16
static unsigned char reload_bits[] = {
   0x00, 0x00, 0xe0, 0x07, 0xf0, 0x0f, 0x38, 0x1c, 0x18, 0x38, 0x00, 0x70,
   0x00, 0xf8, 0x04, 0x70, 0x0e, 0x20, 0x1f, 0x00, 0x0e, 0x00, 0x1c, 0x18,
   0x38, 0x1c, 0xf0, 0x0f, 0xe0, 0x07, 0x00, 0x00};
